<svg xmlns="http://www.w3.org/2000/svg" version="1.1" xmlns:xlink="http://www.w3.org/1999/xlink" xmlns:svgjs="http://svgjs.dev/svgjs" width="1000" height="1000"><style>
    #light-icon {
      display: inline;
    }
    #dark-icon {
      display: none;
    }

    @media (prefers-color-scheme: dark) {
      #light-icon {
        display: none;
      }
      #dark-icon {
        display: inline;
      }
    }
  </style><g id="light-icon"><svg xmlns="http://www.w3.org/2000/svg" version="1.1" xmlns:xlink="http://www.w3.org/1999/xlink" xmlns:svgjs="http://svgjs.dev/svgjs" width="1000" height="1000"><g clip-path="url(#SvgjsClipPath1252)"><rect width="1000" height="1000" fill="#464646"></rect><g transform="matrix(8.333333333333334,0,0,8.333333333333334,41.66666666666663,-5.684341886080802e-14)"><svg xmlns="http://www.w3.org/2000/svg" version="1.1" xmlns:xlink="http://www.w3.org/1999/xlink" xmlns:svgjs="http://svgjs.dev/svgjs" width="110" height="120"><svg xmlns="http://www.w3.org/2000/svg" version="1.1" viewBox="-5.0 -10.0 110.0 120.0" style="background-color:#c0c0c0">
 <path fill="#1aab68" d="m73.543 55.117c0-2.0234-1.4766-3.7031-3.4102-4.0312-1.6406 1.4062-3.2266 2.9453-4.7383 4.5938 0.27344 1.9922 1.9844 3.5312 4.0508 3.5312 2.2617 0.003906 4.0977-1.8359 4.0977-4.0938z"></path>
 <path fill="#1aab68" d="m62.387 59.254c-1.4727 1.8906-2.8359 3.8555-4.1992 6.0938 2.8945 3.8711 7.3984 6.1484 12.285 6.1484 8.4688 0 15.355-6.8867 15.355-15.355 0-4.8828-2.2578-9.3672-6.1094-12.262-2.8086 2.332-4.6172 3.4414-5.8828 4.3281 2.2852 1.457 3.8008 4.0078 3.8008 6.9102 0 4.5156-3.6758 8.1875-8.1875 8.1875-3.0078 0.003906-5.6406-1.6289-7.0625-4.0508z"></path>
 <path fill="#1aab68" d="m34.355 33.969c0.019531 0.011719 0.050781 0.035156 0.074219 0.046875 5.7422 3.8438 10.973 8.7109 15.57 14.488 4.6016-5.7773 9.8281-10.645 15.57-14.488 0.019532-0.011719 0.0625-0.039063 0.089844-0.058594 3.0547-2.0195 5.9609-4.5586 8.6484-7.5586l-1.9297-2.2344c-11.496-13.312-33.242-13.34-44.766 0l-1.9297 2.2344c2.6953 3 5.6016 5.543 8.6719 7.5703z"></path>
 <path fill="#1aab68" d="m26.164 48.211c-1.2656-0.89063-3.0664-1.9922-5.8828-4.3281-3.8516 2.8906-6.1094 7.375-6.1094 12.262 0 8.4688 6.8867 15.355 15.355 15.355 4.8867 0 9.3945-2.2773 12.285-6.1484-1.3984-2.293-2.7656-4.2539-4.1992-6.0938-1.4219 2.4219-4.0547 4.0547-7.0625 4.0547-4.5156 0-8.1875-3.6719-8.1875-8.1875-0.003906-2.9062 1.5156-5.4609 3.8008-6.9141z"></path>
 <path fill="#1aab68" d="m27.586 44.219c10.133 6.7812 17.535 16.969 22.414 27.992 4.9453-11.168 12.414-21.297 22.406-27.984 11.082-7.3242 19.102-18.68 24.254-30.863-4.3047 1.3281-8.6562 2.4844-12.988 3.4375-0.73438 0.16016-1.5-0.089843-1.9922-0.66016-7.8203-9.0586-19.367-14.254-31.68-14.254-12.277 0-23.797 5.168-31.613 14.176-0.50391 0.57812-1.2891 0.82812-2.0312 0.64844-0.36328-0.089844-7.2461-1.7734-13.055-3.4453 1.8516 4.3867 4 8.5078 6.4219 12.301 4.6836 7.3555 10.672 13.898 17.863 18.652zm-6.1523-19.156 3.0859-3.5742c13.129-15.203 37.809-15.234 50.961 0l3.0859 3.5742c0.65625 0.76172 0.66406 1.8828 0.019532 2.6523-3.2539 3.8789-6.8477 7.1328-10.684 9.668l-0.066406 0.042969c-6.043 4.0469-11.492 9.3125-16.191 15.656-0.81641 1.1016-2.4727 1.1016-3.2891 0-4.7031-6.3438-10.148-11.609-16.191-15.656l-0.050781-0.03125c-3.8555-2.5469-7.4492-5.8008-10.699-9.6797-0.64453-0.76562-0.63672-1.8906 0.019532-2.6523z"></path>
 <path fill="#1aab68" d="m34.602 55.68c-1.5078-1.6484-3.0977-3.1914-4.7383-4.5938-1.9336 0.32812-3.4102 2.0117-3.4102 4.0312 0 2.2578 1.8359 4.0938 4.0938 4.0938 2.0703 0.003906 3.7812-1.5391 4.0547-3.5312z"></path>
 <path fill="#1aab68" d="m91.926 30.477c-2.7305 3.9141-5.7227 7.4375-9.0977 10.641 4.4844 3.668 7.0977 9.1133 7.0977 15.023 0 10.727-8.7266 19.449-19.449 19.449-5.5938 0-10.797-2.3555-14.449-6.4297-1.5352 2.9062-2.9102 5.9844-4.1055 9.1914-0.29688 0.80078-1.0625 1.332-1.918 1.332-0.85547 0-1.6211-0.53125-1.918-1.332-1.1953-3.207-2.5703-6.2852-4.1055-9.1914-3.6562 4.0742-8.8555 6.4297-14.449 6.4297-10.727 0-19.449-8.7266-19.449-19.449 0-5.9102 2.6133-11.355 7.0977-15.023-3.3828-3.2148-6.375-6.7422-9.0977-10.641-4.0625 7.1836-6.1953 15.285-6.1953 23.617 0 25.508 20.234 44.02 48.113 44.02s48.113-18.512 48.113-44.02c0-8.332-2.1328-16.434-6.1875-23.617z"></path>
</svg></svg></g></g><defs><clipPath id="SvgjsClipPath1252"><rect width="1000" height="1000" x="0" y="0" rx="300" ry="300"></rect></clipPath></defs></svg></g><g id="dark-icon"><svg xmlns="http://www.w3.org/2000/svg" version="1.1" xmlns:xlink="http://www.w3.org/1999/xlink" xmlns:svgjs="http://svgjs.dev/svgjs" width="1000" height="1000"><g><g transform="matrix(8.333333333333334,0,0,8.333333333333334,41.66666666666663,-5.684341886080802e-14)"><svg xmlns="http://www.w3.org/2000/svg" version="1.1" xmlns:xlink="http://www.w3.org/1999/xlink" xmlns:svgjs="http://svgjs.dev/svgjs" width="110" height="120"><svg xmlns="http://www.w3.org/2000/svg" version="1.1" viewBox="-5.0 -10.0 110.0 120.0" style="background-color:#c0c0c0">
 <path fill="#1aab68" d="m73.543 55.117c0-2.0234-1.4766-3.7031-3.4102-4.0312-1.6406 1.4062-3.2266 2.9453-4.7383 4.5938 0.27344 1.9922 1.9844 3.5312 4.0508 3.5312 2.2617 0.003906 4.0977-1.8359 4.0977-4.0938z"></path>
 <path fill="#1aab68" d="m62.387 59.254c-1.4727 1.8906-2.8359 3.8555-4.1992 6.0938 2.8945 3.8711 7.3984 6.1484 12.285 6.1484 8.4688 0 15.355-6.8867 15.355-15.355 0-4.8828-2.2578-9.3672-6.1094-12.262-2.8086 2.332-4.6172 3.4414-5.8828 4.3281 2.2852 1.457 3.8008 4.0078 3.8008 6.9102 0 4.5156-3.6758 8.1875-8.1875 8.1875-3.0078 0.003906-5.6406-1.6289-7.0625-4.0508z"></path>
 <path fill="#1aab68" d="m34.355 33.969c0.019531 0.011719 0.050781 0.035156 0.074219 0.046875 5.7422 3.8438 10.973 8.7109 15.57 14.488 4.6016-5.7773 9.8281-10.645 15.57-14.488 0.019532-0.011719 0.0625-0.039063 0.089844-0.058594 3.0547-2.0195 5.9609-4.5586 8.6484-7.5586l-1.9297-2.2344c-11.496-13.312-33.242-13.34-44.766 0l-1.9297 2.2344c2.6953 3 5.6016 5.543 8.6719 7.5703z"></path>
 <path fill="#1aab68" d="m26.164 48.211c-1.2656-0.89063-3.0664-1.9922-5.8828-4.3281-3.8516 2.8906-6.1094 7.375-6.1094 12.262 0 8.4688 6.8867 15.355 15.355 15.355 4.8867 0 9.3945-2.2773 12.285-6.1484-1.3984-2.293-2.7656-4.2539-4.1992-6.0938-1.4219 2.4219-4.0547 4.0547-7.0625 4.0547-4.5156 0-8.1875-3.6719-8.1875-8.1875-0.003906-2.9062 1.5156-5.4609 3.8008-6.9141z"></path>
 <path fill="#1aab68" d="m27.586 44.219c10.133 6.7812 17.535 16.969 22.414 27.992 4.9453-11.168 12.414-21.297 22.406-27.984 11.082-7.3242 19.102-18.68 24.254-30.863-4.3047 1.3281-8.6562 2.4844-12.988 3.4375-0.73438 0.16016-1.5-0.089843-1.9922-0.66016-7.8203-9.0586-19.367-14.254-31.68-14.254-12.277 0-23.797 5.168-31.613 14.176-0.50391 0.57812-1.2891 0.82812-2.0312 0.64844-0.36328-0.089844-7.2461-1.7734-13.055-3.4453 1.8516 4.3867 4 8.5078 6.4219 12.301 4.6836 7.3555 10.672 13.898 17.863 18.652zm-6.1523-19.156 3.0859-3.5742c13.129-15.203 37.809-15.234 50.961 0l3.0859 3.5742c0.65625 0.76172 0.66406 1.8828 0.019532 2.6523-3.2539 3.8789-6.8477 7.1328-10.684 9.668l-0.066406 0.042969c-6.043 4.0469-11.492 9.3125-16.191 15.656-0.81641 1.1016-2.4727 1.1016-3.2891 0-4.7031-6.3438-10.148-11.609-16.191-15.656l-0.050781-0.03125c-3.8555-2.5469-7.4492-5.8008-10.699-9.6797-0.64453-0.76562-0.63672-1.8906 0.019532-2.6523z"></path>
 <path fill="#1aab68" d="m34.602 55.68c-1.5078-1.6484-3.0977-3.1914-4.7383-4.5938-1.9336 0.32812-3.4102 2.0117-3.4102 4.0312 0 2.2578 1.8359 4.0938 4.0938 4.0938 2.0703 0.003906 3.7812-1.5391 4.0547-3.5312z"></path>
 <path fill="#1aab68" d="m91.926 30.477c-2.7305 3.9141-5.7227 7.4375-9.0977 10.641 4.4844 3.668 7.0977 9.1133 7.0977 15.023 0 10.727-8.7266 19.449-19.449 19.449-5.5938 0-10.797-2.3555-14.449-6.4297-1.5352 2.9062-2.9102 5.9844-4.1055 9.1914-0.29688 0.80078-1.0625 1.332-1.918 1.332-0.85547 0-1.6211-0.53125-1.918-1.332-1.1953-3.207-2.5703-6.2852-4.1055-9.1914-3.6562 4.0742-8.8555 6.4297-14.449 6.4297-10.727 0-19.449-8.7266-19.449-19.449 0-5.9102 2.6133-11.355 7.0977-15.023-3.3828-3.2148-6.375-6.7422-9.0977-10.641-4.0625 7.1836-6.1953 15.285-6.1953 23.617 0 25.508 20.234 44.02 48.113 44.02s48.113-18.512 48.113-44.02c0-8.332-2.1328-16.434-6.1875-23.617z"></path>
</svg></svg></g></g></svg></g></svg>